<svg id="kity_svg_6" xmlns="http://www.w3.org/2000/svg" xmlns:xlink="http://www.w3.org/1999/xlink" version="1.1" width="1313" height="1189" style="background: rgb(251, 251, 251); visibility: visible;" viewBox="0 0 1313 1189"><defs id="kity_defs_7"><linearGradient id="kity_linearGradient_17" x1="0" y1="0" x2="0" y2="1"><stop id="kity_stop_18" offset="0" stop-color="rgb(255, 255, 255)"></stop><stop id="kity_stop_19" offset="1" stop-color="rgb(204, 204, 204)"></stop></linearGradient><marker id="kity_marker_2" orient="auto" refX="6" refY="0" viewBox="-7 -7 14 14" markerWidth="7" markerHeight="7" markerUnits="userSpaceOnUse"><path id="kity_path_3" fill="rgb(115, 161, 191)" stroke="none" d="M6,0A6,6,0,1,1,-6,0A6,6,0,1,1,6,0"></path></marker></defs><g id="kity_g_8"><g id="minder1" text-rendering="optimize-speed"><g id="minder_connect_group1"><path id="kity_path_31" fill="none" stroke="rgb(115, 161, 191)" stroke-width="1" d="M676.5,614.5A168,223,0,0,1,844.5,391.5"></path><path id="kity_path_33" fill="none" stroke="rgb(115, 161, 191)" stroke-width="1" d="M942.5,391.5C957.5,391.5,957.5,223.5,972.5,223.5L1040.5,223.5"></path><path id="kity_path_35" fill="none" stroke="rgb(115, 161, 191)" stroke-width="1" d="M942.5,391.5C957.5,391.5,957.5,275.5,972.5,275.5L1097.5,275.5"></path><path id="kity_path_37" fill="none" stroke="rgb(115, 161, 191)" stroke-width="1" d="M942.5,391.5C957.5,391.5,957.5,327.5,972.5,327.5L1132.5,327.5"></path><path id="kity_path_39" fill="none" stroke="rgb(115, 161, 191)" stroke-width="1" d="M942.5,391.5C957.5,391.5,957.5,379.5,972.5,379.5L1109.5,379.5"></path><path id="kity_path_41" fill="none" stroke="rgb(115, 161, 191)" stroke-width="1" d="M942.5,391.5C957.5,391.5,957.5,431.5,972.5,431.5L1182.5,431.5"></path><path id="kity_path_43" fill="none" stroke="rgb(115, 161, 191)" stroke-width="1" d="M942.5,391.5C957.5,391.5,957.5,483.5,972.5,483.5L1149.5,483.5"></path><path id="kity_path_45" fill="none" stroke="rgb(115, 161, 191)" stroke-width="1" d="M942.5,391.5C957.5,391.5,957.5,535.5,972.5,535.5L1153.5,535.5"></path><path id="kity_path_47" fill="none" stroke="rgb(115, 161, 191)" stroke-width="1" d="M942.5,391.5C957.5,391.5,957.5,587.5,972.5,587.5L1165.5,587.5"></path><path id="kity_path_49" fill="none" stroke="rgb(115, 161, 191)" stroke-width="1" d="M676.5,614.5A176,44,0,0,0,852.5,658.5"></path><path id="kity_path_51" fill="none" stroke="rgb(115, 161, 191)" stroke-width="1" d="M964.5,658.5C979.5,658.5,979.5,646.5,994.5,646.5L1106.5,646.5"></path><path id="kity_path_53" fill="none" stroke="rgb(115, 161, 191)" stroke-width="1" d="M964.5,658.5C979.5,658.5,979.5,698.5,994.5,698.5L1158.5,698.5"></path><path id="kity_path_55" fill="none" stroke="rgb(115, 161, 191)" stroke-width="1" d="M676.5,614.5A176,226,0,0,0,852.5,840.5"></path><path id="kity_path_57" fill="none" stroke="rgb(115, 161, 191)" stroke-width="1" d="M975.5,840.5C990.5,840.5,990.5,768.5,1005.5,768.5L1293.5,768.5"></path><path id="kity_path_59" fill="none" stroke="rgb(115, 161, 191)" stroke-width="1" d="M975.5,840.5C990.5,840.5,990.5,828.5,1005.5,828.5L1281.5,828.5"></path><path id="kity_path_61" fill="none" stroke="rgb(115, 161, 191)" stroke-width="1" d="M975.5,840.5C990.5,840.5,990.5,888.5,1005.5,888.5L1268.5,888.5"></path><path id="kity_path_63" fill="none" stroke="rgb(115, 161, 191)" stroke-width="1" d="M975.5,840.5C990.5,840.5,990.5,948.5,1005.5,948.5L1208.5,948.5"></path><path id="kity_path_65" fill="none" stroke="rgb(115, 161, 191)" stroke-width="1" d="M676.5,614.5A179,295,0,0,0,497.5,319.5"></path><path id="kity_path_67" fill="none" stroke="rgb(115, 161, 191)" stroke-width="1" d="M399.5,319.5C384.5,319.5,384.5,53.5,369.5,53.5L147.5,53.5"></path><path id="kity_path_69" fill="none" stroke="rgb(115, 161, 191)" stroke-width="1" d="M399.5,319.5C384.5,319.5,384.5,113.5,369.5,113.5L258.5,113.5"></path><path id="kity_path_71" fill="none" stroke="rgb(115, 161, 191)" stroke-width="1" d="M399.5,319.5C384.5,319.5,384.5,173.5,369.5,173.5L161.5,173.5"></path><path id="kity_path_73" fill="none" stroke="rgb(115, 161, 191)" stroke-width="1" d="M399.5,319.5C384.5,319.5,384.5,233.5,369.5,233.5L207.5,233.5"></path><path id="kity_path_75" fill="none" stroke="rgb(115, 161, 191)" stroke-width="1" d="M399.5,319.5C384.5,319.5,384.5,293.5,369.5,293.5L108.5,293.5"></path><path id="kity_path_77" fill="none" stroke="rgb(115, 161, 191)" stroke-width="1" d="M399.5,319.5C384.5,319.5,384.5,353.5,369.5,353.5L239.5,353.5"></path><path id="kity_path_79" fill="none" stroke="rgb(115, 161, 191)" stroke-width="1" d="M399.5,319.5C384.5,319.5,384.5,487.5,369.5,487.5L245.5,487.5"></path><path id="kity_path_81" fill="none" stroke="rgb(115, 161, 191)" stroke-width="1" d="M245.5,487.5C230.5,487.5,230.5,405.5,215.5,405.5L40.5,405.5"></path><path id="kity_path_83" fill="none" stroke="rgb(115, 161, 191)" stroke-width="1" d="M245.5,487.5C230.5,487.5,230.5,457.5,215.5,457.5L81.5,457.5"></path><path id="kity_path_85" fill="none" stroke="rgb(115, 161, 191)" stroke-width="1" d="M245.5,487.5C230.5,487.5,230.5,509.5,215.5,509.5L20.5,509.5"></path><path id="kity_path_87" fill="none" stroke="rgb(115, 161, 191)" stroke-width="1" d="M245.5,487.5C230.5,487.5,230.5,561.5,215.5,561.5L98.5,561.5"></path><path id="kity_path_89" fill="none" stroke="rgb(115, 161, 191)" stroke-width="1" d="M399.5,319.5C384.5,319.5,384.5,621.5,369.5,621.5L237.5,621.5"></path><path id="kity_path_91" fill="none" stroke="rgb(115, 161, 191)" stroke-width="1" d="M676.5,614.5A176,297,0,0,1,500.5,911.5"></path><path id="kity_path_93" fill="none" stroke="rgb(115, 161, 191)" stroke-width="1" d="M402.5,911.5C387.5,911.5,387.5,689.5,372.5,689.5L241.5,689.5"></path><path id="kity_path_95" fill="none" stroke="rgb(115, 161, 191)" stroke-width="1" d="M402.5,911.5C387.5,911.5,387.5,749.5,372.5,749.5L185.5,749.5"></path><path id="kity_path_97" fill="none" stroke="rgb(115, 161, 191)" stroke-width="1" d="M402.5,911.5C387.5,911.5,387.5,809.5,372.5,809.5L194.5,809.5"></path><path id="kity_path_99" fill="none" stroke="rgb(115, 161, 191)" stroke-width="1" d="M402.5,911.5C387.5,911.5,387.5,869.5,372.5,869.5L188.5,869.5"></path><path id="kity_path_101" fill="none" stroke="rgb(115, 161, 191)" stroke-width="1" d="M402.5,911.5C387.5,911.5,387.5,929.5,372.5,929.5L235.5,929.5"></path><path id="kity_path_103" fill="none" stroke="rgb(115, 161, 191)" stroke-width="1" d="M402.5,911.5C387.5,911.5,387.5,989.5,372.5,989.5L201.5,989.5"></path><path id="kity_path_105" fill="none" stroke="rgb(115, 161, 191)" stroke-width="1" d="M402.5,911.5C387.5,911.5,387.5,1049.5,372.5,1049.5L129.5,1049.5"></path><path id="kity_path_107" fill="none" stroke="rgb(115, 161, 191)" stroke-width="1" d="M402.5,911.5C387.5,911.5,387.5,1109.5,372.5,1109.5L154.5,1109.5"></path><path id="kity_path_109" fill="none" stroke="rgb(115, 161, 191)" stroke-width="1" d="M402.5,911.5C387.5,911.5,387.5,1169.5,372.5,1169.5L59.5,1169.5"></path></g><g id="minder_node1"><path id="node_outline1" fill="rgb(115, 161, 191)" stroke="rgb(115, 161, 191)" d="M623.5,594.5h106a5,5,0,0,1,5,5v30a5,5,0,0,1,-5,5h-106a5,5,0,0,1,-5,-5v-30a5,5,0,0,1,5,-5z" stroke-width="3"></path><g id="node_text1" fill="white"><text id="kity_text_22" text-rendering="inherit" font-size="16" dy=".8em" y="606.5" x="642.5">exomiser</text></g></g><g id="kity_g_12"><path id="kity_path_13" fill="none" stroke="none" d="M642.5,614.5h0v0h0z"></path></g><g id="kity_g_14"><path id="kity_path_15" fill="none" stroke="none" d="M642.5,614.5h0v0h0z"></path><path id="kity_path_16" fill="none" stroke="none"></path></g><g id="minder_node2"><g id="node_expander9" style="cursor: pointer;"><path id="kity_path_372" fill="white" stroke="gray" d="M845.5,391.5A6,6,0,1,1,833.5,391.5A6,6,0,1,1,845.5,391.5"></path><path id="kity_path_373" fill="none" stroke="gray" d="M835,391.5L844,391.5"></path></g><path id="node_outline10" fill="rgb(238, 243, 246)" stroke="rgb(115, 161, 191)" d="M849.5,378.5h90a3,3,0,0,1,3,3v20a3,3,0,0,1,-3,3h-90a3,3,0,0,1,-3,-3v-20a3,3,0,0,1,3,-3z" stroke-width="1"></path><g id="node_text10" fill="black"><text id="kity_text_127" text-rendering="inherit" font-size="14" dy=".8em" y="384.5" x="866.5">支持数据</text></g></g><g id="minder_node3"><g id="node_expander1" style="cursor: pointer;" display="none"><path id="kity_path_348" fill="white" stroke="gray" d="M982.5,209.5A6,6,0,1,1,970.5,209.5A6,6,0,1,1,982.5,209.5"></path><path id="kity_path_349" fill="none" stroke="gray"></path></g><path id="node_outline2" fill="none" stroke="none" d="M987.5,198.5h48a5,5,0,0,1,5,5v12a5,5,0,0,1,-5,5h-48a5,5,0,0,1,-5,-5v-12a5,5,0,0,1,5,-5z"></path><g id="node_text2" fill="black"><text id="kity_text_111" text-rendering="inherit" font-size="12" dy=".8em" y="203.5" x="992.5">dbSNP</text></g></g><g id="minder_node4"><g id="node_expander2" style="cursor: pointer;" display="none"><path id="kity_path_351" fill="white" stroke="gray" d="M982.5,261.5A6,6,0,1,1,970.5,261.5A6,6,0,1,1,982.5,261.5"></path><path id="kity_path_352" fill="none" stroke="gray"></path></g><path id="node_outline3" fill="none" stroke="none" d="M987.5,250.5h105a5,5,0,0,1,5,5v12a5,5,0,0,1,-5,5h-105a5,5,0,0,1,-5,-5v-12a5,5,0,0,1,5,-5z"></path><g id="node_text3" fill="black"><text id="kity_text_113" text-rendering="inherit" font-size="12" dy=".8em" y="255.5" x="992.5">1KG project, ESP</text></g></g><g id="minder_node5"><g id="node_expander3" style="cursor: pointer;" display="none"><path id="kity_path_354" fill="white" stroke="gray" d="M982.5,313.5A6,6,0,1,1,970.5,313.5A6,6,0,1,1,982.5,313.5"></path><path id="kity_path_355" fill="none" stroke="gray"></path></g><path id="node_outline4" fill="none" stroke="none" d="M987.5,302.5h140a5,5,0,0,1,5,5v12a5,5,0,0,1,-5,5h-140a5,5,0,0,1,-5,-5v-12a5,5,0,0,1,5,-5z"></path><g id="node_text4" fill="black"><text id="kity_text_115" text-rendering="inherit" font-size="12" dy=".8em" y="307.5" x="992.5">OMIM, Orphanet, HPO</text></g></g><g id="minder_node6"><g id="node_expander4" style="cursor: pointer;" display="none"><path id="kity_path_357" fill="white" stroke="gray" d="M982.5,365.5A6,6,0,1,1,970.5,365.5A6,6,0,1,1,982.5,365.5"></path><path id="kity_path_358" fill="none" stroke="gray"></path></g><path id="node_outline5" fill="none" stroke="none" d="M987.5,354.5h117a5,5,0,0,1,5,5v12a5,5,0,0,1,-5,5h-117a5,5,0,0,1,-5,-5v-12a5,5,0,0,1,5,-5z"></path><g id="node_text5" fill="black"><text id="kity_text_117" text-rendering="inherit" font-size="12" dy=".8em" y="359.5" x="992.5">mouse phenotype</text></g></g><g id="minder_node7"><g id="node_expander5" style="cursor: pointer;" display="none"><path id="kity_path_360" fill="white" stroke="gray" d="M982.5,417.5A6,6,0,1,1,970.5,417.5A6,6,0,1,1,982.5,417.5"></path><path id="kity_path_361" fill="none" stroke="gray"></path></g><path id="node_outline6" fill="none" stroke="none" d="M987.5,406.5h190a5,5,0,0,1,5,5v12a5,5,0,0,1,-5,5h-190a5,5,0,0,1,-5,-5v-12a5,5,0,0,1,5,-5z"></path><g id="node_text6" fill="black"><text id="kity_text_119" text-rendering="inherit" font-size="12" dy=".8em" y="411.5" x="992.5">Zebrafish Anatomical Ontology</text></g></g><g id="minder_node8"><g id="node_expander6" style="cursor: pointer;" display="none"><path id="kity_path_363" fill="white" stroke="gray" d="M982.5,469.5A6,6,0,1,1,970.5,469.5A6,6,0,1,1,982.5,469.5"></path><path id="kity_path_364" fill="none" stroke="gray"></path></g><path id="node_outline7" fill="none" stroke="none" d="M987.5,458.5h157a5,5,0,0,1,5,5v12a5,5,0,0,1,-5,5h-157a5,5,0,0,1,-5,-5v-12a5,5,0,0,1,5,-5z"></path><g id="node_text7" fill="black"><text id="kity_text_121" text-rendering="inherit" font-size="12" dy=".8em" y="463.5" x="992.5">dbNSFP for pathogenicity</text></g></g><g id="minder_node9"><g id="node_expander7" style="cursor: pointer;" display="none"><path id="kity_path_366" fill="white" stroke="gray" d="M982.5,521.5A6,6,0,1,1,970.5,521.5A6,6,0,1,1,982.5,521.5"></path><path id="kity_path_367" fill="none" stroke="gray"></path></g><path id="node_outline8" fill="none" stroke="none" d="M987.5,510.5h161a5,5,0,0,1,5,5v12a5,5,0,0,1,-5,5h-161a5,5,0,0,1,-5,-5v-12a5,5,0,0,1,5,-5z"></path><g id="node_text8" fill="black"><text id="kity_text_123" text-rendering="inherit" font-size="12" dy=".8em" y="515.5" x="992.5">Jannovar, UCSC transcript</text></g></g><g id="minder_node10"><g id="node_expander8" style="cursor: pointer;" display="none"><path id="kity_path_369" fill="white" stroke="gray" d="M982.5,573.5A6,6,0,1,1,970.5,573.5A6,6,0,1,1,982.5,573.5"></path><path id="kity_path_370" fill="none" stroke="gray"></path></g><path id="node_outline9" fill="none" stroke="none" d="M987.5,562.5h173a5,5,0,0,1,5,5v12a5,5,0,0,1,-5,5h-173a5,5,0,0,1,-5,-5v-12a5,5,0,0,1,5,-5z"></path><g id="node_text9" fill="black"><text id="kity_text_125" text-rendering="inherit" font-size="12" dy=".8em" y="567.5" x="992.5">STRING for PPI, exomewalker</text></g></g><g id="minder_node11"><g id="node_expander12" style="cursor: pointer;"><path id="kity_path_381" fill="white" stroke="gray" d="M853.5,658.5A6,6,0,1,1,841.5,658.5A6,6,0,1,1,853.5,658.5"></path><path id="kity_path_382" fill="none" stroke="gray" d="M843,658.5L852,658.5"></path></g><path id="node_outline13" fill="rgb(238, 243, 246)" stroke="rgb(115, 161, 191)" d="M857.5,645.5h104a3,3,0,0,1,3,3v20a3,3,0,0,1,-3,3h-104a3,3,0,0,1,-3,-3v-20a3,3,0,0,1,3,-3z" stroke-width="1"></path><g id="node_text13" fill="black"><text id="kity_text_133" text-rendering="inherit" font-size="14" dy=".8em" y="651.5" x="874.5">Limitations</text></g></g><g id="minder_node12"><g id="node_expander10" style="cursor: pointer;" display="none"><path id="kity_path_375" fill="white" stroke="gray" d="M1004.5,632.5A6,6,0,1,1,992.5,632.5A6,6,0,1,1,1004.5,632.5"></path><path id="kity_path_376" fill="none" stroke="gray"></path></g><path id="node_outline11" fill="none" stroke="none" d="M1009.5,621.5h92a5,5,0,0,1,5,5v12a5,5,0,0,1,-5,5h-92a5,5,0,0,1,-5,-5v-12a5,5,0,0,1,5,-5z"></path><g id="node_text11" fill="black"><text id="kity_text_129" text-rendering="inherit" font-size="12" dy=".8em" y="626.5" x="1014.5">coding region</text></g></g><g id="minder_node13"><g id="node_expander11" style="cursor: pointer;" display="none"><path id="kity_path_378" fill="white" stroke="gray" d="M1004.5,684.5A6,6,0,1,1,992.5,684.5A6,6,0,1,1,1004.5,684.5"></path><path id="kity_path_379" fill="none" stroke="gray"></path></g><path id="node_outline12" fill="none" stroke="none" d="M1009.5,673.5h144a5,5,0,0,1,5,5v12a5,5,0,0,1,-5,5h-144a5,5,0,0,1,-5,-5v-12a5,5,0,0,1,5,-5z"></path><g id="node_text12" fill="black"><text id="kity_text_131" text-rendering="inherit" font-size="12" dy=".8em" y="678.5" x="1014.5">exon-intron boundaries</text></g></g><g id="minder_node14"><g id="node_expander17" style="cursor: pointer;"><path id="kity_path_396" fill="white" stroke="gray" d="M853.5,840.5A6,6,0,1,1,841.5,840.5A6,6,0,1,1,853.5,840.5"></path><path id="kity_path_397" fill="none" stroke="gray" d="M843,840.5L852,840.5"></path></g><path id="node_outline18" fill="rgb(238, 243, 246)" stroke="rgb(115, 161, 191)" d="M857.5,827.5h115a3,3,0,0,1,3,3v20a3,3,0,0,1,-3,3h-115a3,3,0,0,1,-3,-3v-20a3,3,0,0,1,3,-3z" stroke-width="1"></path><g id="node_text18" fill="black"><text id="kity_text_143" text-rendering="inherit" font-size="14" dy=".8em" y="833.5" x="874.5">prioritization</text></g></g><g id="minder_node15"><g id="node_expander13" style="cursor: pointer;" display="none"><path id="kity_path_384" fill="white" stroke="gray" d="M1015.5,750.5A6,6,0,1,1,1003.5,750.5A6,6,0,1,1,1015.5,750.5"></path><path id="kity_path_385" fill="none" stroke="gray"></path></g><path id="node_outline14" fill="none" stroke="none" d="M1020.5,735.5h268a5,5,0,0,1,5,5v20a5,5,0,0,1,-5,5h-268a5,5,0,0,1,-5,-5v-20a5,5,0,0,1,5,-5z" stroke-width="3"></path><g id="node_text14" fill="black"><text id="kity_text_135" text-rendering="inherit" font-size="12" dy=".8em" y="744.5" x="1050.5">PHIVE(PhenoDigm), 小鼠模型表型比较</text></g><g id="kity_g_283" style="cursor: pointer;"><path id="kity_path_284" fill="none" stroke="none" d="M1270,742h12a2,2,0,0,1,2,2v13a2,2,0,0,1,-2,2h-12a2,2,0,0,1,-2,-2v-13a2,2,0,0,1,2,-2z"></path><path id="kity_path_285" fill="black" stroke="none" d="M1279,753H1273V752h6L1279,753L1279,753zM1279,751H1273V750h6V751zM1279,749H1273V748h6V749zM1278.5,755H1272V746h8v7.5M1279,756l2,-2V745H1271v11"></path></g><g id="node_priority10"><path id="kity_path_469" fill="#840023" stroke="none" d="M1026,754c0,3.866,3.134,7,7,7h6c3.866,0,7,-3.134,7,-7V748H1026V754z"></path><path id="kity_path_470" fill="#FF1200" stroke="none" d="M1046,751c0,3.866,-3.134,7,-7,7H1033c-3.866,0,-7,-3.134,-7,-7V748c0,-3.866,3.134,-7,7,-7h6c3.866,0,7,3.134,7,7V751z" opacity="0.8"></path><text id="kity_text_471" text-rendering="geometricPrecision" x="1035" y="750.5" text-anchor="middle" font-style="italic" font-size="12" fill="white" dy="4">1</text></g></g><g id="minder_node16"><g id="node_expander14" style="cursor: pointer;" display="none"><path id="kity_path_387" fill="white" stroke="gray" d="M1015.5,810.5A6,6,0,1,1,1003.5,810.5A6,6,0,1,1,1015.5,810.5"></path><path id="kity_path_388" fill="none" stroke="gray"></path></g><path id="node_outline15" fill="none" stroke="none" d="M1020.5,795.5h256a5,5,0,0,1,5,5v20a5,5,0,0,1,-5,5h-256a5,5,0,0,1,-5,-5v-20a5,5,0,0,1,5,-5z" stroke-width="3"></path><g id="node_text15" fill="black"><text id="kity_text_137" text-rendering="inherit" font-size="12" dy=".8em" y="804.5" x="1050.5">PhenIX(Phenomizer)，已知致病基因</text></g><g id="kity_g_286" style="cursor: pointer;"><path id="kity_path_287" fill="none" stroke="none" d="M1258,802h12a2,2,0,0,1,2,2v13a2,2,0,0,1,-2,2h-12a2,2,0,0,1,-2,-2v-13a2,2,0,0,1,2,-2z"></path><path id="kity_path_288" fill="black" stroke="none" d="M1267,813H1261V812h6L1267,813L1267,813zM1267,811H1261V810h6V811zM1267,809H1261V808h6V809zM1266.5,815H1260V806h8v7.5M1267,816l2,-2V805H1259v11"></path></g><g id="node_priority11"><path id="kity_path_474" fill="#01467F" stroke="none" d="M1026,814c0,3.866,3.134,7,7,7h6c3.866,0,7,-3.134,7,-7V808H1026V814z"></path><path id="kity_path_475" fill="#0074FF" stroke="none" d="M1046,811c0,3.866,-3.134,7,-7,7H1033c-3.866,0,-7,-3.134,-7,-7V808c0,-3.866,3.134,-7,7,-7h6c3.866,0,7,3.134,7,7V811z" opacity="0.8"></path><text id="kity_text_476" text-rendering="geometricPrecision" x="1035" y="810.5" text-anchor="middle" font-style="italic" font-size="12" fill="white" dy="4">2</text></g></g><g id="minder_node17"><g id="node_expander15" style="cursor: pointer;" display="none"><path id="kity_path_390" fill="white" stroke="gray" d="M1015.5,870.5A6,6,0,1,1,1003.5,870.5A6,6,0,1,1,1015.5,870.5"></path><path id="kity_path_391" fill="none" stroke="gray"></path></g><path id="node_outline16" fill="none" stroke="none" d="M1020.5,855.5h243a5,5,0,0,1,5,5v20a5,5,0,0,1,-5,5h-243a5,5,0,0,1,-5,-5v-20a5,5,0,0,1,5,-5z" stroke-width="3"></path><g id="node_text16" fill="black"><text id="kity_text_139" text-rendering="inherit" font-size="12" dy=".8em" y="864.5" x="1050.5">ExomeWalker，疑似疾病基因列表</text></g><g id="kity_g_289" style="cursor: pointer;"><path id="kity_path_290" fill="none" stroke="none" d="M1245,862h12a2,2,0,0,1,2,2v13a2,2,0,0,1,-2,2h-12a2,2,0,0,1,-2,-2v-13a2,2,0,0,1,2,-2z"></path><path id="kity_path_291" fill="black" stroke="none" d="M1254,873H1248V872h6L1254,873L1254,873zM1254,871H1248V870h6V871zM1254,869H1248V868h6V869zM1253.5,875H1247V866h8v7.5M1254,876l2,-2V865H1246v11"></path></g><g id="node_priority12"><path id="kity_path_479" fill="#006300" stroke="none" d="M1026,874c0,3.866,3.134,7,7,7h6c3.866,0,7,-3.134,7,-7V868H1026V874z"></path><path id="kity_path_480" fill="#00AF00" stroke="none" d="M1046,871c0,3.866,-3.134,7,-7,7H1033c-3.866,0,-7,-3.134,-7,-7V868c0,-3.866,3.134,-7,7,-7h6c3.866,0,7,3.134,7,7V871z" opacity="0.8"></path><text id="kity_text_481" text-rendering="geometricPrecision" x="1035" y="870.5" text-anchor="middle" font-style="italic" font-size="12" fill="white" dy="4">3</text></g></g><g id="minder_node18"><g id="node_expander16" style="cursor: pointer;" display="none"><path id="kity_path_393" fill="white" stroke="gray" d="M1015.5,930.5A6,6,0,1,1,1003.5,930.5A6,6,0,1,1,1015.5,930.5"></path><path id="kity_path_394" fill="none" stroke="gray"></path></g><path id="node_outline17" fill="none" stroke="none" d="M1020.5,915.5h183a5,5,0,0,1,5,5v20a5,5,0,0,1,-5,5h-183a5,5,0,0,1,-5,-5v-20a5,5,0,0,1,5,-5z" stroke-width="3"></path><g id="node_text17" fill="black"><text id="kity_text_141" text-rendering="inherit" font-size="12" dy=".8em" y="924.5" x="1050.5">hiPHIVE，整合多种结果</text></g><g id="kity_g_292" style="cursor: pointer;"><path id="kity_path_293" fill="none" stroke="none" d="M1185,922h12a2,2,0,0,1,2,2v13a2,2,0,0,1,-2,2h-12a2,2,0,0,1,-2,-2v-13a2,2,0,0,1,2,-2z"></path><path id="kity_path_294" fill="black" stroke="none" d="M1194,933H1188V932h6L1194,933L1194,933zM1194,931H1188V930h6V931zM1194,929H1188V928h6V929zM1193.5,935H1187V926h8v7.5M1194,936l2,-2V925H1186v11"></path></g><g id="node_priority13"><path id="kity_path_484" fill="#B25000" stroke="none" d="M1026,934c0,3.866,3.134,7,7,7h6c3.866,0,7,-3.134,7,-7V928H1026V934z"></path><path id="kity_path_485" fill="#FF962E" stroke="none" d="M1046,931c0,3.866,-3.134,7,-7,7H1033c-3.866,0,-7,-3.134,-7,-7V928c0,-3.866,3.134,-7,7,-7h6c3.866,0,7,3.134,7,7V931z" opacity="0.8"></path><text id="kity_text_486" text-rendering="geometricPrecision" x="1035" y="930.5" text-anchor="middle" font-style="italic" font-size="12" fill="white" dy="4">4</text></g></g><g id="minder_node19"><g id="node_expander30" style="cursor: pointer;"><path id="kity_path_435" fill="white" stroke="gray" d="M508.5,319.5A6,6,0,1,1,496.5,319.5A6,6,0,1,1,508.5,319.5"></path><path id="kity_path_436" fill="none" stroke="gray" d="M498,319.5L507,319.5"></path></g><path id="node_outline31" fill="rgb(238, 243, 246)" stroke="rgb(115, 161, 191)" d="M402.5,306.5h90a3,3,0,0,1,3,3v20a3,3,0,0,1,-3,3h-90a3,3,0,0,1,-3,-3v-20a3,3,0,0,1,3,-3z" stroke-width="1"></path><g id="node_text31" fill="black"><text id="kity_text_169" text-rendering="inherit" font-size="14" dy=".8em" y="312.5" x="419.5">软件使用</text></g></g><g id="minder_node20"><g id="node_expander18" style="cursor: pointer;" display="none"><path id="kity_path_399" fill="white" stroke="gray" d="M371.5,35.5A6,6,0,1,1,359.5,35.5A6,6,0,1,1,371.5,35.5"></path><path id="kity_path_400" fill="none" stroke="gray"></path></g><path id="node_outline19" fill="none" stroke="none" d="M152.5,20.5h202a5,5,0,0,1,5,5v20a5,5,0,0,1,-5,5h-202a5,5,0,0,1,-5,-5v-20a5,5,0,0,1,5,-5z"></path><g id="node_text19" fill="black"><text id="kity_text_145" text-rendering="inherit" font-size="12" dy=".8em" y="29.5" x="182.5">java 环境, 设置硬盘、内存需求</text></g><g id="node_progress1"><path id="kity_path_236" fill="#FFED83" stroke="none" d="M177,36A9,9,0,1,1,159,36A9,9,0,1,1,177,36"></path><path id="kity_path_237" fill="#43BC00" stroke="none" d="M168,36"></path><path id="kity_path_238" fill="#8E8E8E" stroke="none" d="M168,29c4.418,0,8,3.582,8,8h1c0,-5.523,-3.477,-10,-9,-10S159,31.477,159,37h1C160,32.582,163.582,29,168,29z"></path><path id="kity_path_240" fill="#EEE" stroke="none" d="M183.812,43.896l-6.75,6.75l-4.5,-4.5L174.25,44.459l2.812,2.803l5.062,-5.053L183.812,43.896z" display="none"></path><path id="kity_path_239" fill="url(#kity_linearGradient_17)" stroke="none" d="M168,26C162.477,26,158,30.477,158,36c0,5.523,4.477,10,10,10s10,-4.477,10,-10C178,30.477,173.523,26,168,26zM168,44c-4.418,0,-8,-3.582,-8,-8s3.582,-8,8,-8s8,3.582,8,8S172.418,44,168,44z"></path></g></g><g id="minder_node21"><g id="node_expander19" style="cursor: pointer;" display="none"><path id="kity_path_402" fill="white" stroke="gray" d="M371.5,95.5A6,6,0,1,1,359.5,95.5A6,6,0,1,1,371.5,95.5"></path><path id="kity_path_403" fill="none" stroke="gray"></path></g><path id="node_outline20" fill="none" stroke="none" d="M263.5,80.5h91a5,5,0,0,1,5,5v20a5,5,0,0,1,-5,5h-91a5,5,0,0,1,-5,-5v-20a5,5,0,0,1,5,-5z"></path><g id="node_text20" fill="black"><text id="kity_text_147" text-rendering="inherit" font-size="12" dy=".8em" y="89.5" x="293.5">input VCF</text></g><g id="node_progress2"><path id="kity_path_242" fill="#FFED83" stroke="none" d="M288,96A9,9,0,1,1,270,96A9,9,0,1,1,288,96"></path><path id="kity_path_243" fill="#43BC00" stroke="none" d="M279,96L288,96A9,9,0,0,0,287.3149157926016,92.5558491087142A9,9,0,0,0,285.3639610306789,89.63603896932108L279,96z"></path><path id="kity_path_244" fill="#8E8E8E" stroke="none" d="M279,89c4.418,0,8,3.582,8,8h1c0,-5.523,-3.477,-10,-9,-10S270,91.477,270,97h1C271,92.582,274.582,89,279,89z"></path><path id="kity_path_246" fill="#EEE" stroke="none" d="M294.812,103.896l-6.75,6.75l-4.5,-4.5L285.25,104.459l2.812,2.803l5.062,-5.053L294.812,103.896z" display="none"></path><path id="kity_path_245" fill="url(#kity_linearGradient_17)" stroke="none" d="M279,86C273.477,86,269,90.477,269,96c0,5.523,4.477,10,10,10s10,-4.477,10,-10C289,90.477,284.523,86,279,86zM279,104c-4.418,0,-8,-3.582,-8,-8s3.582,-8,8,-8s8,3.582,8,8S283.418,104,279,104z"></path></g></g><g id="minder_node22"><g id="node_expander20" style="cursor: pointer;" display="none"><path id="kity_path_405" fill="white" stroke="gray" d="M371.5,155.5A6,6,0,1,1,359.5,155.5A6,6,0,1,1,371.5,155.5"></path><path id="kity_path_406" fill="none" stroke="gray"></path></g><path id="node_outline21" fill="none" stroke="none" d="M166.5,140.5h188a5,5,0,0,1,5,5v20a5,5,0,0,1,-5,5h-188a5,5,0,0,1,-5,-5v-20a5,5,0,0,1,5,-5z"></path><g id="node_text21" fill="black"><text id="kity_text_149" text-rendering="inherit" font-size="12" dy=".8em" y="149.5" x="196.5">input ped file for family vcf</text></g><g id="node_progress3"><path id="kity_path_248" fill="#FFED83" stroke="none" d="M191,156A9,9,0,1,1,173,156A9,9,0,1,1,191,156"></path><path id="kity_path_249" fill="#43BC00" stroke="none" d="M182,156L191,156A9,9,0,0,0,188.36396103067892,149.63603896932108A9,9,0,0,0,182,147L182,156z"></path><path id="kity_path_250" fill="#8E8E8E" stroke="none" d="M182,149c4.418,0,8,3.582,8,8h1c0,-5.523,-3.477,-10,-9,-10S173,151.477,173,157h1C174,152.582,177.582,149,182,149z"></path><path id="kity_path_252" fill="#EEE" stroke="none" d="M197.812,163.896l-6.75,6.75l-4.5,-4.5L188.25,164.459l2.812,2.803l5.062,-5.053L197.812,163.896z" display="none"></path><path id="kity_path_251" fill="url(#kity_linearGradient_17)" stroke="none" d="M182,146C176.477,146,172,150.477,172,156c0,5.523,4.477,10,10,10s10,-4.477,10,-10C192,150.477,187.523,146,182,146zM182,164c-4.418,0,-8,-3.582,-8,-8s3.582,-8,8,-8s8,3.582,8,8S186.418,164,182,164z"></path></g></g><g id="minder_node23"><g id="node_expander21" style="cursor: pointer;" display="none"><path id="kity_path_408" fill="white" stroke="gray" d="M371.5,215.5A6,6,0,1,1,359.5,215.5A6,6,0,1,1,371.5,215.5"></path><path id="kity_path_409" fill="none" stroke="gray"></path></g><path id="node_outline22" fill="none" stroke="none" d="M212.5,200.5h142a5,5,0,0,1,5,5v20a5,5,0,0,1,-5,5h-142a5,5,0,0,1,-5,-5v-20a5,5,0,0,1,5,-5z"></path><g id="node_text22" fill="black"><text id="kity_text_151" text-rendering="inherit" font-size="12" dy=".8em" y="209.5" x="242.5">inheritance model</text></g><g id="node_progress4"><path id="kity_path_254" fill="#FFED83" stroke="none" d="M237,216A9,9,0,1,1,219,216A9,9,0,1,1,237,216"></path><path id="kity_path_255" fill="#43BC00" stroke="none" d="M228,216L237,216A9,9,0,0,0,231.4441508912858,207.68508420739843A9,9,0,0,0,221.63603896932108,209.63603896932108L228,216z"></path><path id="kity_path_256" fill="#8E8E8E" stroke="none" d="M228,209c4.418,0,8,3.582,8,8h1c0,-5.523,-3.477,-10,-9,-10S219,211.477,219,217h1C220,212.582,223.582,209,228,209z"></path><path id="kity_path_258" fill="#EEE" stroke="none" d="M243.812,223.896l-6.75,6.75l-4.5,-4.5L234.25,224.459l2.812,2.803l5.062,-5.053L243.812,223.896z" display="none"></path><path id="kity_path_257" fill="url(#kity_linearGradient_17)" stroke="none" d="M228,206C222.477,206,218,210.477,218,216c0,5.523,4.477,10,10,10s10,-4.477,10,-10C238,210.477,233.523,206,228,206zM228,224c-4.418,0,-8,-3.582,-8,-8s3.582,-8,8,-8s8,3.582,8,8S232.418,224,228,224z"></path></g></g><g id="minder_node24"><g id="node_expander22" style="cursor: pointer;" display="none"><path id="kity_path_411" fill="white" stroke="gray" d="M371.5,275.5A6,6,0,1,1,359.5,275.5A6,6,0,1,1,371.5,275.5"></path><path id="kity_path_412" fill="none" stroke="gray"></path></g><path id="node_outline23" fill="none" stroke="none" d="M113.5,260.5h241a5,5,0,0,1,5,5v20a5,5,0,0,1,-5,5h-241a5,5,0,0,1,-5,-5v-20a5,5,0,0,1,5,-5z"></path><g id="node_text23" fill="black"><text id="kity_text_153" text-rendering="inherit" font-size="12" dy=".8em" y="269.5" x="143.5">限制变异位于 coding and splice sites</text></g><g id="node_progress5"><path id="kity_path_260" fill="#FFED83" stroke="none" d="M138,276A9,9,0,1,1,120,276A9,9,0,1,1,138,276"></path><path id="kity_path_261" fill="#43BC00" stroke="none" d="M129,276L138,276A9,9,0,0,0,129,267A9,9,0,0,0,120,276L129,276z"></path><path id="kity_path_262" fill="#8E8E8E" stroke="none" d="M129,269c4.418,0,8,3.582,8,8h1c0,-5.523,-3.477,-10,-9,-10S120,271.477,120,277h1C121,272.582,124.582,269,129,269z"></path><path id="kity_path_264" fill="#EEE" stroke="none" d="M144.812,283.896l-6.75,6.75l-4.5,-4.5L135.25,284.459l2.812,2.803l5.062,-5.053L144.812,283.896z" display="none"></path><path id="kity_path_263" fill="url(#kity_linearGradient_17)" stroke="none" d="M129,266C123.477,266,119,270.477,119,276c0,5.523,4.477,10,10,10s10,-4.477,10,-10C139,270.477,134.523,266,129,266zM129,284c-4.418,0,-8,-3.582,-8,-8s3.582,-8,8,-8s8,3.582,8,8S133.418,284,129,284z"></path></g></g><g id="minder_node25"><g id="node_expander23" style="cursor: pointer;" display="none"><path id="kity_path_414" fill="white" stroke="gray" d="M371.5,335.5A6,6,0,1,1,359.5,335.5A6,6,0,1,1,371.5,335.5"></path><path id="kity_path_415" fill="none" stroke="gray"></path></g><path id="node_outline24" fill="none" stroke="none" d="M244.5,320.5h110a5,5,0,0,1,5,5v20a5,5,0,0,1,-5,5h-110a5,5,0,0,1,-5,-5v-20a5,5,0,0,1,5,-5z"></path><g id="node_text24" fill="black"><text id="kity_text_155" text-rendering="inherit" font-size="12" dy=".8em" y="329.5" x="274.5">限制 gene list</text></g><g id="node_progress6"><path id="kity_path_266" fill="#FFED83" stroke="none" d="M269,336A9,9,0,1,1,251,336A9,9,0,1,1,269,336"></path><path id="kity_path_267" fill="#43BC00" stroke="none" d="M260,336L269,336A9,9,0,0,0,260,327A9,9,0,0,0,251,336L260,336z"></path><path id="kity_path_268" fill="#8E8E8E" stroke="none" d="M260,329c4.418,0,8,3.582,8,8h1c0,-5.523,-3.477,-10,-9,-10S251,331.477,251,337h1C252,332.582,255.582,329,260,329z"></path><path id="kity_path_270" fill="#EEE" stroke="none" d="M275.812,343.896l-6.75,6.75l-4.5,-4.5L266.25,344.459l2.812,2.803l5.062,-5.053L275.812,343.896z" display="none"></path><path id="kity_path_269" fill="url(#kity_linearGradient_17)" stroke="none" d="M260,326C254.477,326,250,330.477,250,336c0,5.523,4.477,10,10,10s10,-4.477,10,-10C270,330.477,265.523,326,260,326zM260,344c-4.418,0,-8,-3.582,-8,-8s3.582,-8,8,-8s8,3.582,8,8S264.418,344,260,344z"></path></g></g><g id="minder_node26"><g id="node_expander28" style="cursor: pointer;"><path id="kity_path_429" fill="white" stroke="gray" d="M371.5,469.5A6,6,0,1,1,359.5,469.5A6,6,0,1,1,371.5,469.5"></path><path id="kity_path_430" fill="none" stroke="gray" d="M361,469.5L370,469.5"></path></g><path id="node_outline29" fill="none" stroke="none" d="M250.5,454.5h104a5,5,0,0,1,5,5v20a5,5,0,0,1,-5,5h-104a5,5,0,0,1,-5,-5v-20a5,5,0,0,1,5,-5z"></path><g id="node_text29" fill="black"><text id="kity_text_165" text-rendering="inherit" font-size="12" dy=".8em" y="463.5" x="280.5">prioritization</text></g><g id="node_progress7"><path id="kity_path_272" fill="#FFED83" stroke="none" d="M275,470A9,9,0,1,1,257,470A9,9,0,1,1,275,470"></path><path id="kity_path_273" fill="#43BC00" stroke="none" d="M266,470L275,470A9,9,0,0,0,257.6850842073984,466.5558491087142A9,9,0,0,0,272.3639610306789,476.3639610306789L266,470z"></path><path id="kity_path_274" fill="#8E8E8E" stroke="none" d="M266,463c4.418,0,8,3.582,8,8h1c0,-5.523,-3.477,-10,-9,-10S257,465.477,257,471h1C258,466.582,261.582,463,266,463z"></path><path id="kity_path_276" fill="#EEE" stroke="none" d="M281.812,477.896l-6.75,6.75l-4.5,-4.5L272.25,478.459l2.812,2.803l5.062,-5.053L281.812,477.896z" display="none"></path><path id="kity_path_275" fill="url(#kity_linearGradient_17)" stroke="none" d="M266,460C260.477,460,256,464.477,256,470c0,5.523,4.477,10,10,10s10,-4.477,10,-10C276,464.477,271.523,460,266,460zM266,478c-4.418,0,-8,-3.582,-8,-8s3.582,-8,8,-8s8,3.582,8,8S270.418,478,266,478z"></path></g></g><g id="minder_node27"><g id="node_expander24" style="cursor: pointer;" display="none"><path id="kity_path_417" fill="white" stroke="gray" d="M217.5,391.5A6,6,0,1,1,205.5,391.5A6,6,0,1,1,217.5,391.5"></path><path id="kity_path_418" fill="none" stroke="gray"></path></g><path id="node_outline25" fill="none" stroke="none" d="M45.5,380.5h155a5,5,0,0,1,5,5v12a5,5,0,0,1,-5,5h-155a5,5,0,0,1,-5,-5v-12a5,5,0,0,1,5,-5z"></path><g id="node_text25" fill="black"><text id="kity_text_157" text-rendering="inherit" font-size="12" dy=".8em" y="385.5" x="50.5">PHIVE/hiPHIVE, input HPO</text></g></g><g id="minder_node28"><g id="node_expander25" style="cursor: pointer;" display="none"><path id="kity_path_420" fill="white" stroke="gray" d="M217.5,443.5A6,6,0,1,1,205.5,443.5A6,6,0,1,1,217.5,443.5"></path><path id="kity_path_421" fill="none" stroke="gray"></path></g><path id="node_outline26" fill="none" stroke="none" d="M86.5,432.5h114a5,5,0,0,1,5,5v12a5,5,0,0,1,-5,5h-114a5,5,0,0,1,-5,-5v-12a5,5,0,0,1,5,-5z"></path><g id="node_text26" fill="black"><text id="kity_text_159" text-rendering="inherit" font-size="12" dy=".8em" y="437.5" x="91.5">PhenIX, input HPO</text></g></g><g id="minder_node29"><g id="node_expander26" style="cursor: pointer;" display="none"><path id="kity_path_423" fill="white" stroke="gray" d="M217.5,495.5A6,6,0,1,1,205.5,495.5A6,6,0,1,1,217.5,495.5"></path><path id="kity_path_424" fill="none" stroke="gray"></path></g><path id="node_outline27" fill="none" stroke="none" d="M25.5,484.5h175a5,5,0,0,1,5,5v12a5,5,0,0,1,-5,5h-175a5,5,0,0,1,-5,-5v-12a5,5,0,0,1,5,-5z"></path><g id="node_text27" fill="black"><text id="kity_text_161" text-rendering="inherit" font-size="12" dy=".8em" y="489.5" x="30.5">exomewalker, input gene list</text></g></g><g id="minder_node30"><g id="node_expander27" style="cursor: pointer;" display="none"><path id="kity_path_426" fill="white" stroke="gray" d="M217.5,547.5A6,6,0,1,1,205.5,547.5A6,6,0,1,1,217.5,547.5"></path><path id="kity_path_427" fill="none" stroke="gray"></path></g><path id="node_outline28" fill="none" stroke="none" d="M103.5,536.5h97a5,5,0,0,1,5,5v12a5,5,0,0,1,-5,5h-97a5,5,0,0,1,-5,-5v-12a5,5,0,0,1,5,-5z"></path><g id="node_text28" fill="black"><text id="kity_text_163" text-rendering="inherit" font-size="12" dy=".8em" y="541.5" x="108.5">not phonetype</text></g></g><g id="minder_node31"><g id="node_expander29" style="cursor: pointer;" display="none"><path id="kity_path_432" fill="white" stroke="gray" d="M371.5,603.5A6,6,0,1,1,359.5,603.5A6,6,0,1,1,371.5,603.5"></path><path id="kity_path_433" fill="none" stroke="gray"></path></g><path id="node_outline30" fill="none" stroke="none" d="M242.5,588.5h112a5,5,0,0,1,5,5v20a5,5,0,0,1,-5,5h-112a5,5,0,0,1,-5,-5v-20a5,5,0,0,1,5,-5z"></path><g id="node_text30" fill="black"><text id="kity_text_167" text-rendering="inherit" font-size="12" dy=".8em" y="597.5" x="272.5">results, check</text></g><g id="node_progress8"><path id="kity_path_278" fill="#FFED83" stroke="none" d="M267,604A9,9,0,1,1,249,604A9,9,0,1,1,267,604"></path><path id="kity_path_279" fill="#43BC00" stroke="none" d="M258,604L267,604A9,9,0,0,1,249,604A9,9,0,0,1,267,604L258,604z"></path><path id="kity_path_280" fill="#8E8E8E" stroke="none" d="M258,597c4.418,0,8,3.582,8,8h1c0,-5.523,-3.477,-10,-9,-10S249,599.477,249,605h1C250,600.582,253.582,597,258,597z"></path><path id="kity_path_282" fill="#EEE" stroke="none" d="M263.812,601.896l-6.75,6.75l-4.5,-4.5L254.25,602.459l2.812,2.803l5.062,-5.053L263.812,601.896z"></path><path id="kity_path_281" fill="url(#kity_linearGradient_17)" stroke="none" d="M258,594C252.477,594,248,598.477,248,604c0,5.523,4.477,10,10,10s10,-4.477,10,-10C268,598.477,263.523,594,258,594zM258,612c-4.418,0,-8,-3.582,-8,-8s3.582,-8,8,-8s8,3.582,8,8S262.418,612,258,612z"></path></g></g><g id="minder_node32"><g id="node_expander40" style="cursor: pointer;"><path id="kity_path_465" fill="white" stroke="gray" d="M511.5,911.5A6,6,0,1,1,499.5,911.5A6,6,0,1,1,511.5,911.5"></path><path id="kity_path_466" fill="none" stroke="gray" d="M501,911.5L510,911.5"></path></g><path id="node_outline41" fill="rgb(238, 243, 246)" stroke="rgb(115, 161, 191)" d="M405.5,898.5h90a3,3,0,0,1,3,3v20a3,3,0,0,1,-3,3h-90a3,3,0,0,1,-3,-3v-20a3,3,0,0,1,3,-3z" stroke-width="1"></path><g id="node_text41" fill="black"><text id="kity_text_189" text-rendering="inherit" font-size="14" dy=".8em" y="904.5" x="422.5">流程逻辑</text></g></g><g id="minder_node33"><g id="node_expander31" style="cursor: pointer;" display="none"><path id="kity_path_438" fill="white" stroke="gray" d="M374.5,671.5A6,6,0,1,1,362.5,671.5A6,6,0,1,1,374.5,671.5"></path><path id="kity_path_439" fill="none" stroke="gray"></path></g><path id="node_outline32" fill="none" stroke="none" d="M246.5,656.5h111a5,5,0,0,1,5,5v20a5,5,0,0,1,-5,5h-111a5,5,0,0,1,-5,-5v-20a5,5,0,0,1,5,-5z"></path><g id="node_text32" fill="black"><text id="kity_text_171" text-rendering="inherit" font-size="12" dy=".8em" y="665.5" x="276.5">input VCF file</text></g><g id="node_priority1"><path id="kity_path_192" fill="#840023" stroke="none" d="M252,675c0,3.866,3.134,7,7,7h6c3.866,0,7,-3.134,7,-7V669H252V675z"></path><path id="kity_path_193" fill="#FF1200" stroke="none" d="M272,672c0,3.866,-3.134,7,-7,7H259c-3.866,0,-7,-3.134,-7,-7V669c0,-3.866,3.134,-7,7,-7h6c3.866,0,7,3.134,7,7V672z" opacity="0.8"></path><text id="kity_text_194" text-rendering="geometricPrecision" x="261" y="671.5" text-anchor="middle" font-style="italic" font-size="12" fill="white" dy="4">1</text></g></g><g id="minder_node34"><g id="node_expander32" style="cursor: pointer;" display="none"><path id="kity_path_441" fill="white" stroke="gray" d="M374.5,731.5A6,6,0,1,1,362.5,731.5A6,6,0,1,1,374.5,731.5"></path><path id="kity_path_442" fill="none" stroke="gray"></path></g><path id="node_outline33" fill="none" stroke="none" d="M190.5,716.5h167a5,5,0,0,1,5,5v20a5,5,0,0,1,-5,5h-167a5,5,0,0,1,-5,-5v-20a5,5,0,0,1,5,-5z"></path><g id="node_text33" fill="black"><text id="kity_text_173" text-rendering="inherit" font-size="12" dy=".8em" y="725.5" x="220.5">Variant Annotation</text></g><g id="node_priority2"><path id="kity_path_197" fill="#01467F" stroke="none" d="M196,735c0,3.866,3.134,7,7,7h6c3.866,0,7,-3.134,7,-7V729H196V735z"></path><path id="kity_path_198" fill="#0074FF" stroke="none" d="M216,732c0,3.866,-3.134,7,-7,7H203c-3.866,0,-7,-3.134,-7,-7V729c0,-3.866,3.134,-7,7,-7h6c3.866,0,7,3.134,7,7V732z" opacity="0.8"></path><text id="kity_text_199" text-rendering="geometricPrecision" x="205" y="731.5" text-anchor="middle" font-style="italic" font-size="12" fill="white" dy="4">2</text></g><g id="kity_g_295" style="cursor: pointer;"><path id="kity_path_296" fill="none" stroke="none" d="M339,723h12a2,2,0,0,1,2,2v13a2,2,0,0,1,-2,2h-12a2,2,0,0,1,-2,-2v-13a2,2,0,0,1,2,-2z"></path><path id="kity_path_297" fill="black" stroke="none" d="M348,734H342V733h6L348,734L348,734zM348,732H342V731h6V732zM348,730H342V729h6V730zM347.5,736H341V727h8v7.5M348,737l2,-2V726H340v11"></path></g></g><g id="minder_node35"><g id="node_expander33" style="cursor: pointer;" display="none"><path id="kity_path_444" fill="white" stroke="gray" d="M374.5,791.5A6,6,0,1,1,362.5,791.5A6,6,0,1,1,374.5,791.5"></path><path id="kity_path_445" fill="none" stroke="gray"></path></g><path id="node_outline34" fill="none" stroke="none" d="M199.5,776.5h158a5,5,0,0,1,5,5v20a5,5,0,0,1,-5,5h-158a5,5,0,0,1,-5,-5v-20a5,5,0,0,1,5,-5z"></path><g id="node_text34" fill="black"><text id="kity_text_175" text-rendering="inherit" font-size="12" dy=".8em" y="785.5" x="229.5">remove off target</text></g><g id="node_priority3"><path id="kity_path_202" fill="#006300" stroke="none" d="M205,795c0,3.866,3.134,7,7,7h6c3.866,0,7,-3.134,7,-7V789H205V795z"></path><path id="kity_path_203" fill="#00AF00" stroke="none" d="M225,792c0,3.866,-3.134,7,-7,7H212c-3.866,0,-7,-3.134,-7,-7V789c0,-3.866,3.134,-7,7,-7h6c3.866,0,7,3.134,7,7V792z" opacity="0.8"></path><text id="kity_text_204" text-rendering="geometricPrecision" x="214" y="791.5" text-anchor="middle" font-style="italic" font-size="12" fill="white" dy="4">3</text></g><g id="kity_g_298" style="cursor: pointer;"><path id="kity_path_299" fill="none" stroke="none" d="M339,783h12a2,2,0,0,1,2,2v13a2,2,0,0,1,-2,2h-12a2,2,0,0,1,-2,-2v-13a2,2,0,0,1,2,-2z"></path><path id="kity_path_300" fill="black" stroke="none" d="M348,794H342V793h6L348,794L348,794zM348,792H342V791h6V792zM348,790H342V789h6V790zM347.5,796H341V787h8v7.5M348,797l2,-2V786H340v11"></path></g></g><g id="minder_node36"><g id="node_expander34" style="cursor: pointer;" display="none"><path id="kity_path_447" fill="white" stroke="gray" d="M374.5,851.5A6,6,0,1,1,362.5,851.5A6,6,0,1,1,374.5,851.5"></path><path id="kity_path_448" fill="none" stroke="gray"></path></g><path id="node_outline35" fill="none" stroke="none" d="M193.5,836.5h164a5,5,0,0,1,5,5v20a5,5,0,0,1,-5,5h-164a5,5,0,0,1,-5,-5v-20a5,5,0,0,1,5,-5z"></path><g id="node_text35" fill="black"><text id="kity_text_177" text-rendering="inherit" font-size="12" dy=".8em" y="845.5" x="223.5">minor allele frequency</text></g><g id="node_priority4"><path id="kity_path_207" fill="#B25000" stroke="none" d="M199,855c0,3.866,3.134,7,7,7h6c3.866,0,7,-3.134,7,-7V849H199V855z"></path><path id="kity_path_208" fill="#FF962E" stroke="none" d="M219,852c0,3.866,-3.134,7,-7,7H206c-3.866,0,-7,-3.134,-7,-7V849c0,-3.866,3.134,-7,7,-7h6c3.866,0,7,3.134,7,7V852z" opacity="0.8"></path><text id="kity_text_209" text-rendering="geometricPrecision" x="208" y="851.5" text-anchor="middle" font-style="italic" font-size="12" fill="white" dy="4">4</text></g></g><g id="minder_node37"><g id="node_expander35" style="cursor: pointer;" display="none"><path id="kity_path_450" fill="white" stroke="gray" d="M374.5,911.5A6,6,0,1,1,362.5,911.5A6,6,0,1,1,374.5,911.5"></path><path id="kity_path_451" fill="none" stroke="gray"></path></g><path id="node_outline36" fill="none" stroke="none" d="M240.5,896.5h117a5,5,0,0,1,5,5v20a5,5,0,0,1,-5,5h-117a5,5,0,0,1,-5,-5v-20a5,5,0,0,1,5,-5z"></path><g id="node_text36" fill="black"><text id="kity_text_179" text-rendering="inherit" font-size="12" dy=".8em" y="905.5" x="270.5">variant quality</text></g><g id="node_priority5"><path id="kity_path_212" fill="#4720C4" stroke="none" d="M246,915c0,3.866,3.134,7,7,7h6c3.866,0,7,-3.134,7,-7V909H246V915z"></path><path id="kity_path_213" fill="#A464FF" stroke="none" d="M266,912c0,3.866,-3.134,7,-7,7H253c-3.866,0,-7,-3.134,-7,-7V909c0,-3.866,3.134,-7,7,-7h6c3.866,0,7,3.134,7,7V912z" opacity="0.8"></path><text id="kity_text_214" text-rendering="geometricPrecision" x="255" y="911.5" text-anchor="middle" font-style="italic" font-size="12" fill="white" dy="4">5</text></g></g><g id="minder_node38"><g id="node_expander36" style="cursor: pointer;" display="none"><path id="kity_path_453" fill="white" stroke="gray" d="M374.5,971.5A6,6,0,1,1,362.5,971.5A6,6,0,1,1,374.5,971.5"></path><path id="kity_path_454" fill="none" stroke="gray"></path></g><path id="node_outline37" fill="none" stroke="none" d="M206.5,956.5h151a5,5,0,0,1,5,5v20a5,5,0,0,1,-5,5h-151a5,5,0,0,1,-5,-5v-20a5,5,0,0,1,5,-5z"></path><g id="node_text37" fill="black"><text id="kity_text_181" text-rendering="inherit" font-size="12" dy=".8em" y="965.5" x="236.5">predefined gene list</text></g><g id="node_priority6"><path id="kity_path_217" fill="#515151" stroke="none" d="M212,975c0,3.866,3.134,7,7,7h6c3.866,0,7,-3.134,7,-7V969H212V975z"></path><path id="kity_path_218" fill="#A3A3A3" stroke="none" d="M232,972c0,3.866,-3.134,7,-7,7H219c-3.866,0,-7,-3.134,-7,-7V969c0,-3.866,3.134,-7,7,-7h6c3.866,0,7,3.134,7,7V972z" opacity="0.8"></path><text id="kity_text_219" text-rendering="geometricPrecision" x="221" y="971.5" text-anchor="middle" font-style="italic" font-size="12" fill="white" dy="4">6</text></g></g><g id="minder_node39"><g id="node_expander37" style="cursor: pointer;" display="none"><path id="kity_path_456" fill="white" stroke="gray" d="M374.5,1031.5A6,6,0,1,1,362.5,1031.5A6,6,0,1,1,374.5,1031.5"></path><path id="kity_path_457" fill="none" stroke="gray"></path></g><path id="node_outline38" fill="none" stroke="none" d="M134.5,1016.5h223a5,5,0,0,1,5,5v20a5,5,0,0,1,-5,5h-223a5,5,0,0,1,-5,-5v-20a5,5,0,0,1,5,-5z"></path><g id="node_text38" fill="black"><text id="kity_text_183" text-rendering="inherit" font-size="12" dy=".8em" y="1025.5" x="164.5">optional, inheritance pattern</text></g><g id="node_priority7"><path id="kity_path_222" fill="#515151" stroke="none" d="M140,1035c0,3.866,3.134,7,7,7h6c3.866,0,7,-3.134,7,-7V1029H140V1035z"></path><path id="kity_path_223" fill="#A3A3A3" stroke="none" d="M160,1032c0,3.866,-3.134,7,-7,7H147c-3.866,0,-7,-3.134,-7,-7V1029c0,-3.866,3.134,-7,7,-7h6c3.866,0,7,3.134,7,7V1032z" opacity="0.8"></path><text id="kity_text_224" text-rendering="geometricPrecision" x="149" y="1031.5" text-anchor="middle" font-style="italic" font-size="12" fill="white" dy="4">7</text></g><g id="kity_g_301" style="cursor: pointer;"><path id="kity_path_302" fill="none" stroke="none" d="M339,1023h12a2,2,0,0,1,2,2v13a2,2,0,0,1,-2,2h-12a2,2,0,0,1,-2,-2v-13a2,2,0,0,1,2,-2z"></path><path id="kity_path_303" fill="black" stroke="none" d="M348,1034H342V1033h6L348,1034L348,1034zM348,1032H342V1031h6V1032zM348,1030H342V1029h6V1030zM347.5,1036H341V1027h8v7.5M348,1037l2,-2V1026H340v11"></path></g></g><g id="minder_node40"><g id="node_expander38" style="cursor: pointer;" display="none"><path id="kity_path_459" fill="white" stroke="gray" d="M374.5,1091.5A6,6,0,1,1,362.5,1091.5A6,6,0,1,1,374.5,1091.5"></path><path id="kity_path_460" fill="none" stroke="gray"></path></g><path id="node_outline39" fill="none" stroke="none" d="M159.5,1076.5h198a5,5,0,0,1,5,5v20a5,5,0,0,1,-5,5h-198a5,5,0,0,1,-5,-5v-20a5,5,0,0,1,5,-5z"></path><g id="node_text39" fill="black"><text id="kity_text_185" text-rendering="inherit" font-size="12" dy=".8em" y="1085.5" x="189.5">optional, family structure</text></g><g id="node_priority8"><path id="kity_path_227" fill="#515151" stroke="none" d="M165,1095c0,3.866,3.134,7,7,7h6c3.866,0,7,-3.134,7,-7V1089H165V1095z"></path><path id="kity_path_228" fill="#A3A3A3" stroke="none" d="M185,1092c0,3.866,-3.134,7,-7,7H172c-3.866,0,-7,-3.134,-7,-7V1089c0,-3.866,3.134,-7,7,-7h6c3.866,0,7,3.134,7,7V1092z" opacity="0.8"></path><text id="kity_text_229" text-rendering="geometricPrecision" x="174" y="1091.5" text-anchor="middle" font-style="italic" font-size="12" fill="white" dy="4">8</text></g><g id="kity_g_304" style="cursor: pointer;"><path id="kity_path_305" fill="none" stroke="none" d="M339,1083h12a2,2,0,0,1,2,2v13a2,2,0,0,1,-2,2h-12a2,2,0,0,1,-2,-2v-13a2,2,0,0,1,2,-2z"></path><path id="kity_path_306" fill="black" stroke="none" d="M348,1094H342V1093h6L348,1094L348,1094zM348,1092H342V1091h6V1092zM348,1090H342V1089h6V1090zM347.5,1096H341V1087h8v7.5M348,1097l2,-2V1086H340v11"></path></g></g><g id="minder_node41"><g id="node_expander39" style="cursor: pointer;" display="none"><path id="kity_path_462" fill="white" stroke="gray" d="M374.5,1151.5A6,6,0,1,1,362.5,1151.5A6,6,0,1,1,374.5,1151.5"></path><path id="kity_path_463" fill="none" stroke="gray"></path></g><path id="node_outline40" fill="none" stroke="none" d="M64.5,1136.5h293a5,5,0,0,1,5,5v20a5,5,0,0,1,-5,5h-293a5,5,0,0,1,-5,-5v-20a5,5,0,0,1,5,-5z"></path><g id="node_text40" fill="black"><text id="kity_text_187" text-rendering="inherit" font-size="12" dy=".8em" y="1145.5" x="94.5">optional, Prioritization 突变基因与表型相关分析</text></g><g id="node_priority9"><path id="kity_path_232" fill="#515151" stroke="none" d="M70,1155c0,3.866,3.134,7,7,7h6c3.866,0,7,-3.134,7,-7V1149H70V1155z"></path><path id="kity_path_233" fill="#A3A3A3" stroke="none" d="M90,1152c0,3.866,-3.134,7,-7,7H77c-3.866,0,-7,-3.134,-7,-7V1149c0,-3.866,3.134,-7,7,-7h6c3.866,0,7,3.134,7,7V1152z" opacity="0.8"></path><text id="kity_text_234" text-rendering="geometricPrecision" x="79" y="1151.5" text-anchor="middle" font-style="italic" font-size="12" fill="white" dy="4">9</text></g></g></g></g></svg>